<svg xmlns="http://www.w3.org/2000/svg" version="1.1" xmlns:xlink="http://www.w3.org/1999/xlink" xmlns:svgjs="http://svgjs.dev/svgjs" width="1920" height="1080" preserveAspectRatio="none" viewBox="0 0 1920 1080"><g mask="url(&quot;#SvgjsMask1534&quot;)" fill="none"><rect width="1920" height="1080" x="0" y="0" fill="url(&quot;#SvgjsRadialGradient1535&quot;)"></rect><path d="M-90.49 -53.51 a36.98 36.98 0 1 0 73.96 0 a36.98 36.98 0 1 0 -73.96 0z" fill="rgba(87, 2, 66, 0.5)" class="triangle-float2"></path><path d="M236.111,463.341C328.918,463.736,428.742,454.155,481.365,377.708C540.479,291.831,547.894,176.488,495.687,86.245C443.55,-3.878,340.132,-50.692,236.111,-46.23C139.342,-42.079,60.584,22.929,12.439,106.974C-35.378,190.447,-56.696,294.158,-5.556,375.638C43.272,453.433,144.263,462.95,236.111,463.341" fill="rgba(87, 2, 66, 0.5)" class="triangle-float1"></path><path d="M-116.53 -27.48 a89.05 89.05 0 1 0 178.1 0 a89.05 89.05 0 1 0 -178.1 0z" fill="rgba(87, 2, 66, 0.5)" class="triangle-float3"></path><path d="M1750.788,157.559C1791.491,157.826,1833.939,141.698,1851.984,105.213C1868.707,71.401,1848.723,33.679,1827.47,2.515C1809.503,-23.83,1782.629,-41.415,1750.788,-43.17C1715.212,-45.131,1677.8,-36.397,1657.914,-6.833C1635.802,26.042,1632.378,69.404,1651.866,103.9C1671.643,138.906,1710.583,157.295,1750.788,157.559" fill="rgba(87, 2, 66, 0.5)" class="triangle-float2"></path><path d="M1769.84,184.149C1815.269,186.557,1863.883,172.667,1886.548,133.222C1909.154,93.88,1895.014,45.955,1871.572,7.106C1849.058,-30.205,1813.418,-59.989,1769.84,-60.19C1725.956,-60.393,1687.115,-32.566,1666.468,6.158C1646.986,42.697,1651.964,86.083,1672.76,121.89C1693.453,157.52,1728.695,181.968,1769.84,184.149" fill="rgba(87, 2, 66, 0.5)" class="triangle-float1"></path><path d="M1627.73 -67.72 a8.55 8.55 0 1 0 17.1 0 a8.55 8.55 0 1 0 -17.1 0z" fill="rgba(87, 2, 66, 0.5)" class="triangle-float3"></path><path d="M46.452,1001.65C82.072,1000.766,120.732,994.48,138.682,963.701C156.728,932.757,145.152,894.823,126.632,864.16C108.863,834.741,80.796,812.323,46.452,811.003C9.765,809.593,-25.409,826.611,-45.162,857.559C-66.552,891.072,-75.391,934.933,-54.06,968.483C-33.771,1000.393,8.65,1002.588,46.452,1001.65" fill="rgba(87, 2, 66, 0.5)" class="triangle-float3"></path><path d="M262.745,1421.489C365.64,1423.501,456.759,1357.558,505.996,1267.186C553.146,1180.646,542.624,1078.851,497.024,991.484C447.124,895.877,370.58,802.676,262.745,801.129C153.056,799.555,65.391,886.375,16.523,984.589C-27.092,1072.247,-12.642,1172.69,35.428,1257.986C84.543,1345.137,162.726,1419.534,262.745,1421.489" fill="rgba(87, 2, 66, 0.5)" class="triangle-float1"></path><path d="M-193.44 913.45 a242.89 242.89 0 1 0 485.78 0 a242.89 242.89 0 1 0 -485.78 0z" fill="rgba(87, 2, 66, 0.5)" class="triangle-float3"></path><path d="M1955.102,1348.59C2050.588,1346.555,2157.53,1342.211,2207.644,1260.907C2259.447,1176.863,2228.445,1071.285,2178.531,986.105C2129.293,902.079,2052.417,833.746,1955.102,829.935C1851.399,825.874,1753.52,878.926,1699.155,967.331C1642.043,1060.203,1622.433,1181.562,1683.202,1272.083C1739.448,1355.867,1854.212,1350.74,1955.102,1348.59" fill="rgba(87, 2, 66, 0.5)" class="triangle-float1"></path><path d="M1949.143,1369.27C2040.749,1371.438,2123.386,1315.537,2167.966,1235.481C2211.36,1157.555,2208.614,1062.312,2162.636,985.883C2118.051,911.768,2035.634,871.343,1949.143,871.73C1863.358,872.113,1781.4,913.241,1738.93,987.777C1696.851,1061.628,1706.53,1151.089,1747.551,1225.533C1790.24,1303.005,1860.713,1367.178,1949.143,1369.27" fill="rgba(87, 2, 66, 0.5)" class="triangle-float2"></path><path d="M1546.64 877.35 a170.71 170.71 0 1 0 341.42 0 a170.71 170.71 0 1 0 -341.42 0z" fill="rgba(87, 2, 66, 0.5)" class="triangle-float1"></path></g><defs><mask id="SvgjsMask1534"><rect width="1920" height="1080" fill="#ffffff"></rect></mask><radialGradient cx="0%" cy="0%" r="2202.91" gradientUnits="userSpaceOnUse" id="SvgjsRadialGradient1535"><stop stop-color="rgba(24, 4, 46, 1)" offset="0.42"></stop><stop stop-color="rgba(37, 1, 39, 1)" offset="0.64"></stop></radialGradient><style>
                @keyframes float1 {
                    0%{transform: translate(0, 0)}
                    50%{transform: translate(-10px, 0)}
                    100%{transform: translate(0, 0)}
                }

                .triangle-float1 {
                    animation: float1 5s infinite;
                }

                @keyframes float2 {
                    0%{transform: translate(0, 0)}
                    50%{transform: translate(-5px, -5px)}
                    100%{transform: translate(0, 0)}
                }

                .triangle-float2 {
                    animation: float2 4s infinite;
                }

                @keyframes float3 {
                    0%{transform: translate(0, 0)}
                    50%{transform: translate(0, -10px)}
                    100%{transform: translate(0, 0)}
                }

                .triangle-float3 {
                    animation: float3 6s infinite;
                }
            </style></defs></svg>